<svg xmlns="http://www.w3.org/2000/svg" viewBox="0 0 24 24" fill="currentColor">
  <path fill-rule="evenodd" clip-rule="evenodd" d="M6 3.5A3.5 3.5 0 0 0 2.5 7 3.5 3.5 0 0 0 6 10.5h1.5v3H6A3.5 3.5 0 0 0 2.5 17 3.5 3.5 0 0 0 6 20.5 3.5 3.5 0 0 0 9.5 17v-1.5h5V17a3.5 3.5 0 0 0 3.5 3.5 3.5 3.5 0 0 0 3.5-3.5 3.5 3.5 0 0 0-3.5-3.5H16.5v-3H18A3.5 3.5 0 0 0 21.5 7 3.5 3.5 0 0 0 18 3.5 3.5 3.5 0 0 0 14.5 7v1.5h-5V7A3.5 3.5 0 0 0 6 3.5zm3.5 6H6A1.5 1.5 0 0 1 4.5 8 1.5 1.5 0 0 1 6 6.5 1.5 1.5 0 0 1 7.5 8v1.5h2zm5 0h-5v5h5v-5zm2-1.5V8A1.5 1.5 0 0 1 18 6.5 1.5 1.5 0 0 1 19.5 8 1.5 1.5 0 0 1 18 9.5h-1.5zM6 15.5h1.5V17A1.5 1.5 0 0 1 6 18.5 1.5 1.5 0 0 1 4.5 17 1.5 1.5 0 0 1 6 15.5zm10.5 1.5v-1.5H18A1.5 1.5 0 0 1 19.5 17 1.5 1.5 0 0 1 18 18.5a1.5 1.5 0 0 1-1.5-1.5z"/>
</svg>
